<svg width="500" height="500" viewBox="0 0 500 500" xmlns="http://www.w3.org/2000/svg"><title>apple-logo</title><g fill="none" fill-rule="evenodd"><path d="M242.2608 158.5154c-17.7233 0-45.158-19.3118-74.0494-18.6138-38.1172.4654-73.0782 21.1732-92.7438 53.98-39.574 65.8462-10.197 163.1033 28.4058 216.6179 18.9373 26.0593 41.2735 55.376 70.8932 54.4453 28.4058-1.1634 39.0884-17.683 73.5638-17.683 34.2327 0 43.944 17.683 74.0494 16.985 30.5909-.4654 50.0137-26.5247 68.7081-52.8166 21.6079-30.2474 30.5909-59.5641 31.0765-61.1928-.7284-.2327-59.4823-21.8712-60.2107-87.0195-.4855-54.4453 46.372-80.5046 48.557-81.668-26.7063-37.4602-67.737-41.6483-82.0613-42.579-37.3888-2.792-68.708 19.5445-86.1886 19.5445zm63.124-54.9107c15.781-18.1484 26.2208-43.5097 23.3074-68.6383-22.579.9307-49.7709 14.4257-66.0375 32.5741-14.567 16.0544-27.1919 41.881-23.7929 66.5443 25.0069 1.8614 50.742-12.3316 66.523-30.48z" fill="#000"/><path d="M35 35h430v430H35z"/></g></svg>